<?xml version="1.0" encoding="utf-8"?>
<!-- Generator: Adobe Illustrator 19.2.1, SVG Export Plug-In . SVG Version: 6.00 Build 0)  -->
<svg version="1.1" id="Layer_1" xmlns="http://www.w3.org/2000/svg" xmlns:xlink="http://www.w3.org/1999/xlink" x="0px" y="0px" width="100px" height="100px"
	 viewBox="0 0 3000 360" style="enable-background:new 0 0 3000 360;" xml:space="preserve">
<style type="text/css">
	.st0{fill:#181D21;}
	.st1{fill:#BF2026;}
</style>
<path class="st0" d="M305.3,357.9h25.9c8.4,0,15.4,0,15.4-12.7V25.7c0-19.3-15.8-18.4-24.2-18.4h-17.1c-7.9,0-13.6,2.2-17.1,6.6
	L175.8,155.4L63.7,15.2c-5.3-7-10.1-7.9-18.4-7.9H29.5C22,7.3,4,7.3,4,25.3l0.9,320.8c0,11.8,6.2,12.3,14.5,11.8h25.9
	c15.4,0,17.6-2.2,17.6-17.5V110.3l90,111.7c4.8,5.7,5.7,7,14.1,7h17.1c6.6,0,9.2,0,13.2-6.6l-0.4,0.9
	c31.6-37.3,60.6-74.5,90.9-113.1v230.1C287.8,355.7,290,357.9,305.3,357.9z"/>
<path class="st0" d="M632.2,7.3h-38.7c-8.8,0-11,4.8-14.1,11.4c-11.4,27.6-112,323.4-112,325.2c0,8.3,7.5,14,14.5,14h30.3
	c10.5,0,11.4-4.4,14.5-11.4l24.1-67.5l26.4-79.3l35.6-99.5c4.8,13.6,7.5,22.8,10.5,31.6c1.3,4.8,3.1,8.8,4.4,13.6
	c1.3,4.8,4.8,13.6,10.1,27.6l21.1,58.3l40,115.3c3.1,6.6,4.8,11.4,14.1,11.4h31.6c9.2,0,14.1-4.8,14.1-14c0-1.8,0-2.2-0.4-5.3
	L645.8,18.7C642.7,13,641,7.3,632.2,7.3z"/>
<path class="st0" d="M1102.2,357.9h29.9c8.4,0,14.5-7,14.5-14V21.3c0-7-6.2-14-14.5-14h-29.9c-8.3,0-14.5,7-14.5,14V240L937,13.9
	v0.4c-2.6-4.8-6.6-7-11.8-7h-32.5c-8.3,0-14.1,7-14.1,14l0.9,322.5c0,7,4.8,14,13.2,14H923c8.4,0,14.5-7,14.5-14V125.6
	c54,79.8,99.7,147.3,152.4,225.7C1092.5,355.7,1096.5,357.9,1102.2,357.9z"/>
<path class="st0" d="M1394.7,357.9h33.8c61.5,0,113.3-50,113.3-111.3V21.3c0-9.2-4.8-14-14.5-14h-29c-13.6,0-14.5,8.3-14.5,17.1
	v222.2c0,29.8-25,53.9-55.3,53.9h-33.8c-26.4,0-49.2-21.5-49.2-48.2V24.4c0-8.8-0.4-17.1-14.1-17.1h-29.4c-9.2,0-14.1,4.8-14.1,14
	v231C1288,311.9,1336.8,357.9,1394.7,357.9z"/>
<path class="st0" d="M1895.9,186.8c-8.6-5.6-18.5-10.7-30.1-14.6c-8.1-2.9-7.5-3.1-104.6-27c-6.5-1.7-12.8-6.3-18.5-12.9
	c-10.2-11-8.2-24.5-6.9-31.8v0.4c4.7-21.9,25-37.8,46.9-37.8h40.8c27.9,1.6,42.6,8.4,43.9,44.9c0.4,6.9,5.6,13.7,13.8,13.7h28.4
	c13.3,0,13.3-8.1,13.8-16.8c1.3-33.1-10.8-57.3-30.1-72.8c-19.4-15.4-43.9-24.9-69.7-24.9h-40.8c-49.1,0-93.4,34.8-102.4,82.4
	l0.4-0.4c-3,11.6-2.6,20.6-2.6,29.6v6c0,57.5,59.4,74.3,114.5,86.7c31,7.3,57.3,11.6,69.3,21.9c7.3,6.4,6.9,19.3,6.4,24.9
	c0,3-0.4,5.6-0.9,8.6c-3.9,22.8-26.3,36.9-52.1,36.9h-32.7c-22.4,0-41.7-15.4-46.5-36.5c-0.4-5.6-0.4-14.4-2.1-20
	c-1.7-6.9-6-10.3-12.9-10.3h-29.3c-13.3,0-13.8,8.1-13.8,16.7v-0.9c0,9.9-0.4,11.8,3,29.4c1.7,9,5.6,18.5,12,27.9
	c18.5,29.6,52.1,48.5,89.5,48.5h32.7c31,0,58.5-7.3,77.9-24.5c19.4-17.2,32.7-53.2,32.7-85.9C1926,219.4,1913.5,198.8,1895.9,186.8z
	"/>
<path class="st0" d="M2438.3,347.9c1.7,5.7,3.9,11,13.8,11h37.9c8.6,0,10.8-4.4,13.8-11.4l7.3-20.6l44.3-125.3L2601.4,71
	c9.9-28.6,15.5-48.3,15.5-49.7c0-7-6.9-14.1-13.8-14.1h-34c-6.4,0-11.2,3.9-13.8,12.3c0,0.4-0.9,0.4-0.9,1.8l0.4-2.6L2471,275
	l-84.8-256.2c-3-5.7-5.2-11.4-13.8-11.4h-33.6c-9.5,0-14.2,4.8-14.2,14.1c0,1.3,0,4.4,1.7,7.5c31.4,79.1,55.1,152.5,82.2,231.6
	L2438.3,347.9z"/>
<path class="st0" d="M2990.3,139.2v-36.5c0-52.8-41.5-95.4-92.8-95.4h-149c-8.1,0-13.3,7-13.3,14.1l0.1,323.5
	c0,8.4,6,14.1,14.1,14.1h27.7c8.1,0,14.1-5.7,14.1-14.1V65.8h106.3c9.8,0,18.4,3.5,25.6,11l4.3,5.3c6.8,8.4,6.4,18.9,6.4,20.7
	c0,4.8,0.4,8.4,0.4,13.2c0,4,0.4,11,0.4,15c0,31.6-15,41.8-30.8,41.8h-6.2l0,0h-8.3h-8.3h-0.2h-8c-9.4,0-14.7,6.9-14.1,14.1
	c0.1,1.3,0,3.4,1.7,7.5l71.4,153.4c3,5.7,5.1,11.4,13.7,11.4h30.7c9.4,0,14.1-4.8,14.1-14.1c0-1.3,0-4.4-1.7-7.5l-54.5-120.5
	C2973.5,206.6,2990.3,183.1,2990.3,139.2z"/>
<g>
	<path class="st1" d="M2191.4,193.3c0-26.1-21.2-47.3-47.3-47.3c-26.1,0-47.3,21.2-47.3,47.3c0,26.1,21.2,47.3,47.3,47.3
		C2170.2,240.6,2191.4,219.4,2191.4,193.3z"/>
</g>
</svg>
